# xmcd
#
# Track frame offsets:
#	150
#	10821
#	15391
#	22859
#	33050
#	41503
#	58673
#	72839
#	81625
#	91091
#	101609
#	117635
#	132056
#	146755
#	166824
#	181435
#	199069
#	209589
#	219755
#	229405
#	242825
#	250906
#	265258
#	282224
#	295953
#	314847
#	335918
#
# Disc length: 4753 seconds
#
# Revision: 0
# Processed by: cddbd v1.5.1PL0 Copyright (c) Steve Scherf et al.
# Submitted via: dBpowerAMP V4.0
#
DISCID=90128f1b
DTITLE=Various Artist - Top Five Dead Or Alive Pt. 2
DYEAR=1900
DGENRE=
TTITLE0=01 - Jay-Z - Freestyle (2m 22s)
TTITLE1=Jadakiss - You Ain't A Killer
TTITLE2=Tupac - All Eyes On Me 1
TTITLE3=Tupac - All Eyes On Me 2
TTITLE4=Tupac and Biggie - Got My Mind Made Up
TTITLE5=The Notorious B.I.G - Hypnotize
TTITLE6=Jay-Z and Biggie - Young G's
TTITLE7=Jadakiss and Biggie - Last Dayz
TTITLE8=Nas and Jadakiss - Why Remix
TTITLE9=10 - Good Mornin' (2m 20s)
TTITLE10=Biggie and Tupac - How We Do Remix
TTITLE11=Jadakiss - Put Ya Hands Up
TTITLE12=Jay-Z - Jigga That Nigga
TTITLE13=Tupac - The Way It Is
TTITLE14=The Notorious B.I.G - Ten Crack Commandments
TTITLE15=Nas - Nas Is Like
TTITLE16=Tupac and Biggie - Let's Get It On
TTITLE17=Nas and Biggie - Got Urself A Gun (2m 15s)
TTITLE18=Tupac and Jadakiss - Homeboyz Remix
TTITLE19=Biggie and Tupac - Going Back To The Westside
TTITLE20=Jay-Z and Jadakiss - When It Comes To The Game
TTITLE21=Jadakiss - Happy 2 Be Here
TTITLE22=Jadakiss and Biggie - You'll See
TTITLE23=Biggie and Jay-Z - King Of N.Y
TTITLE24=The Notorious B.I.G - One More Chance Remix
TTITLE25=26 - If I Ruled The World (4m 40s)
TTITLE26=Tupac - Wonder If Heaven Got A Ghetto
EXTD=
EXTT0=
EXTT1=
EXTT2=
EXTT3=
EXTT4=
EXTT5=
EXTT6=
EXTT7=
EXTT8=
EXTT9=
EXTT10=
EXTT11=
EXTT12=
EXTT13=
EXTT14=
EXTT15=
EXTT16=
EXTT17=
EXTT18=
EXTT19=
EXTT20=
EXTT21=
EXTT22=
EXTT23=
EXTT24=
EXTT25=
EXTT26=
PLAYORDER=
